<svg version="1.1" id="Layer_1" xmlns="http://www.w3.org/2000/svg" xmlns:xlink="http://www.w3.org/1999/xlink" x="0px" y="0px"
	 width="100%" viewBox="0 0 578 578" enable-background="new 0 0 578 578" xml:space="preserve">
<path fill="#FFFFFF" opacity="1.000000" stroke="none" 
	d="
M1.000004,531.000000 
	C1.000000,370.642578 1.000000,210.285187 1.328503,49.758705 
	C2.030101,49.262966 2.628955,49.001099 2.744007,48.600338 
	C9.552464,24.884483 24.580635,9.415844 48.499439,2.773384 
	C48.806755,2.688041 48.839233,1.613058 49.000000,1.000000 
	C209.357422,1.000000 369.714844,1.000000 530.241333,1.328506 
	C530.737000,2.030106 530.998901,2.628953 531.399658,2.743995 
	C555.115540,9.552436 570.584167,24.580667 577.226562,48.499466 
	C577.311951,48.806755 578.386963,48.839241 579.000000,49.000000 
	C579.000000,209.357422 579.000000,369.714844 578.671509,530.241333 
	C577.969849,530.737061 577.371094,530.998901 577.255981,531.399719 
	C570.447571,555.115540 555.419373,570.584167 531.500610,577.226624 
	C531.193298,577.311951 531.160828,578.386963 531.000000,579.000000 
	C370.642578,579.000000 210.285187,579.000000 49.758705,578.671509 
	C49.262959,577.969849 49.001095,577.370972 48.600338,577.255920 
	C24.884472,570.447571 9.415821,555.419434 2.773443,531.500488 
	C2.688085,531.193176 1.613080,531.160706 1.000004,531.000000 
M166.123993,442.722870 
	C174.952118,442.159729 183.185989,439.658508 190.478851,434.628815 
	C204.321609,425.081940 211.608749,411.794342 211.964828,394.979980 
	C212.227341,382.584595 212.016357,370.179199 212.016357,356.759979 
	C233.839981,381.155243 260.053894,393.382751 291.824402,391.938232 
	C323.711884,390.488373 348.718536,375.665466 368.616943,350.714050 
	C368.616943,388.962738 368.616943,427.211426 368.616943,465.546539 
	C369.951080,465.691589 370.761932,465.856537 371.572876,465.856842 
	C399.071564,465.867706 426.570435,465.913940 454.068634,465.795990 
	C457.526001,465.781158 461.060822,465.208130 464.421814,464.352234 
	C486.383606,458.759644 500.971191,439.994385 500.983643,417.158386 
	C501.033844,325.162811 501.008820,233.167175 501.001434,141.171570 
	C501.001343,139.886536 500.869507,138.601501 500.776093,136.895126 
	C499.012909,136.895126 497.552185,136.894943 496.091492,136.895157 
	C469.426147,136.898849 442.760468,136.826370 416.095520,136.928757 
	C391.666290,137.022568 370.696686,155.484680 369.033356,179.834854 
	C367.775391,198.250534 368.513092,216.802277 368.346283,235.293320 
	C368.332825,236.785751 368.192505,238.277039 368.045135,240.978851 
	C348.295624,214.733475 323.562469,200.169037 291.833344,198.718872 
	C260.055786,197.266479 233.962860,209.485184 211.969757,233.828674 
	C211.969757,193.018723 211.969757,153.632019 211.969757,113.821548 
	C209.683716,113.821548 207.891006,113.821541 206.098282,113.821548 
	C180.599503,113.821671 155.100693,113.807358 129.601929,113.825706 
	C100.178612,113.846886 79.418129,134.319778 79.393837,163.681427 
	C79.318398,254.843674 79.362305,346.006012 79.375175,437.168335 
	C79.375427,438.932281 79.563225,440.696228 79.652107,442.259308 
	C80.562851,442.522186 80.881355,442.694427 81.200012,442.694702 
	C109.198135,442.719086 137.196274,442.730225 166.123993,442.722870 
z"/>
<path fill="#000000" opacity="1.000000" stroke="none" 
	d="
M48.531342,1.000000 
	C48.839233,1.613058 48.806755,2.688041 48.499439,2.773384 
	C24.580635,9.415844 9.552464,24.884483 2.744007,48.600338 
	C2.628955,49.001099 2.030101,49.262966 1.328503,49.294823 
	C1.000000,33.073269 1.000000,17.146536 1.000000,1.000000 
	C16.686876,1.000000 32.374779,1.000000 48.531342,1.000000 
z"/>
<path fill="#000000" opacity="1.000000" stroke="none" 
	d="
M579.000000,48.531342 
	C578.386963,48.839241 577.311951,48.806755 577.226562,48.499466 
	C570.584167,24.580667 555.115540,9.552436 531.399658,2.743995 
	C530.998901,2.628953 530.737000,2.030106 530.705200,1.328506 
	C546.926758,1.000000 562.853455,1.000000 579.000000,1.000000 
	C579.000000,16.686876 579.000000,32.374779 579.000000,48.531342 
z"/>
<path fill="#000000" opacity="1.000000" stroke="none" 
	d="
M1.000004,531.468628 
	C1.613080,531.160706 2.688085,531.193176 2.773443,531.500488 
	C9.415821,555.419434 24.884472,570.447571 48.600338,577.255920 
	C49.001095,577.370972 49.262959,577.969849 49.294823,578.671509 
	C33.073269,579.000000 17.146536,579.000000 1.000000,579.000000 
	C1.000000,563.313110 1.000000,547.625244 1.000004,531.468628 
z"/>
<path fill="#000000" opacity="1.000000" stroke="none" 
	d="
M531.468628,579.000000 
	C531.160828,578.386963 531.193298,577.311951 531.500610,577.226624 
	C555.419373,570.584167 570.447571,555.115540 577.255981,531.399719 
	C577.371094,530.998901 577.969849,530.737061 578.671509,530.705200 
	C579.000000,546.926758 579.000000,562.853455 579.000000,579.000000 
	C563.313110,579.000000 547.625244,579.000000 531.468628,579.000000 
z"/>
<path fill="#0DA5C7" opacity="1.000000" stroke="none" 
	d="
M165.659195,442.732574 
	C137.196274,442.730225 109.198135,442.719086 81.200012,442.694702 
	C80.881355,442.694427 80.562851,442.522186 79.652107,442.259308 
	C79.563225,440.696228 79.375427,438.932281 79.375175,437.168335 
	C79.362305,346.006012 79.318398,254.843674 79.393837,163.681427 
	C79.418129,134.319778 100.178612,113.846886 129.601929,113.825706 
	C155.100693,113.807358 180.599503,113.821671 206.098282,113.821548 
	C207.891006,113.821541 209.683716,113.821548 211.969757,113.821548 
	C211.969757,153.632019 211.969757,193.018723 211.969757,233.828674 
	C233.962860,209.485184 260.055786,197.266479 291.833344,198.718872 
	C323.562469,200.169037 348.295624,214.733475 368.045135,240.978851 
	C368.192505,238.277039 368.332825,236.785751 368.346283,235.293320 
	C368.513092,216.802277 367.775391,198.250534 369.033356,179.834854 
	C370.696686,155.484680 391.666290,137.022568 416.095520,136.928757 
	C442.760468,136.826370 469.426147,136.898849 496.091492,136.895157 
	C497.552185,136.894943 499.012909,136.895126 500.776093,136.895126 
	C500.869507,138.601501 501.001343,139.886536 501.001434,141.171570 
	C501.008820,233.167175 501.033844,325.162811 500.983643,417.158386 
	C500.971191,439.994385 486.383606,458.759644 464.421814,464.352234 
	C461.060822,465.208130 457.526001,465.781158 454.068634,465.795990 
	C426.570435,465.913940 399.071564,465.867706 371.572876,465.856842 
	C370.761932,465.856537 369.951080,465.691589 368.616943,465.546539 
	C368.616943,427.211426 368.616943,388.962738 368.616943,350.714050 
	C348.718536,375.665466 323.711884,390.488373 291.824402,391.938232 
	C260.053894,393.382751 233.839981,381.155243 212.016357,356.759979 
	C212.016357,370.179199 212.227341,382.584595 211.964828,394.979980 
	C211.608749,411.794342 204.321609,425.081940 190.478851,434.628815 
	C183.185989,439.658508 174.952118,442.159729 165.659195,442.732574 
M237.559433,323.854767 
	C250.931854,344.997742 270.082825,355.080078 294.957611,351.892059 
	C317.912537,348.950104 333.875732,335.762177 341.478851,313.978851 
	C349.176331,291.925232 344.447479,271.620300 328.039276,255.073624 
	C311.945374,238.843887 292.022400,233.839966 270.163574,240.813492 
	C234.830231,252.085739 220.103882,289.565826 237.559433,323.854767 
z"/>
<path fill="#FDFEFE" opacity="1.000000" stroke="none" 
	d="
M237.368698,323.539642 
	C220.103882,289.565826 234.830231,252.085739 270.163574,240.813492 
	C292.022400,233.839966 311.945374,238.843887 328.039276,255.073624 
	C344.447479,271.620300 349.176331,291.925232 341.478851,313.978851 
	C333.875732,335.762177 317.912537,348.950104 294.957611,351.892059 
	C270.082825,355.080078 250.931854,344.997742 237.368698,323.539642 
z"/>
</svg>